<?xml version="1.0" encoding="UTF-8" standalone="no"?>
<svg
   xmlns:dc="http://purl.org/dc/elements/1.1/"
   xmlns:cc="http://creativecommons.org/ns#"
   xmlns:rdf="http://www.w3.org/1999/02/22-rdf-syntax-ns#"
   xmlns:svg="http://www.w3.org/2000/svg"
   xmlns="http://www.w3.org/2000/svg"
   xmlns:sodipodi="http://sodipodi.sourceforge.net/DTD/sodipodi-0.dtd"
   xmlns:inkscape="http://www.inkscape.org/namespaces/inkscape"
   width="210mm"
   height="297mm"
   viewBox="0 0 210 297"
   version="1.1"
   id="svg8"
   sodipodi:docname="YM_teema.svg"
   inkscape:version="1.0.2-2 (e86c870879, 2021-01-15)">
  <sodipodi:namedview
     pagecolor="#ffffff"
     bordercolor="#666666"
     borderopacity="1"
     objecttolerance="10"
     gridtolerance="10"
     guidetolerance="10"
     inkscape:pageopacity="0"
     inkscape:pageshadow="2"
     inkscape:window-width="2880"
     inkscape:window-height="1526"
     id="namedview189"
     showgrid="false"
     inkscape:zoom="0.71268238"
     inkscape:cx="210.80126"
     inkscape:cy="542.7719"
     inkscape:window-x="2869"
     inkscape:window-y="-11"
     inkscape:window-maximized="1"
     inkscape:current-layer="svg8" />
  <defs
     id="defs2">
    <clipPath
       clipPathUnits="userSpaceOnUse"
       id="clipPath853">
      <path
         d="M -439.04001,-187.67999 H 0.16 V -0.16 h -439.20001 z"
         clip-rule="evenodd"
         id="path851" />
    </clipPath>
    <clipPath
       clipPathUnits="userSpaceOnUse"
       id="clipPath867">
      <path
         d="M -326.88,-319.35999 H -0.16 V 50.560001 h -326.72 z"
         clip-rule="evenodd"
         id="path865" />
    </clipPath>
    <clipPath
       clipPathUnits="userSpaceOnUse"
       id="clipPath881">
      <path
         d="M 26.08,644.96002 V 686.88 H 160.8 v -41.91998 z"
         clip-rule="evenodd"
         id="path879" />
    </clipPath>
  </defs>
  <metadata
     id="metadata5">
    <rdf:RDF>
      <cc:Work
         rdf:about="">
        <dc:format>image/svg+xml</dc:format>
        <dc:type
           rdf:resource="http://purl.org/dc/dcmitype/StillImage" />
        <dc:title />
      </cc:Work>
    </rdf:RDF>
  </metadata>
  <g
     id="layer1"
     transform="rotate(-90,104.72056,139.87236)">
    <g
       id="g841"
       transform="matrix(0.26458333,0,0,0.26458333,-43.80594,34.864525)">
      <g
         id="g843">
        <path
           d="M 0,81.120003 H 1122.5601 V 712.47998 H 0 Z"
           style="fill:#236192;fill-opacity:1;fill-rule:nonzero;stroke:none"
           id="path845" />
      </g>
      <g
         id="g847"
         transform="translate(439.04001,712.64001)">
        <g
           id="g849"
           clip-path="url(#clipPath853)">
          <path
             d="m 0,0 c 0,-4.64 0,-9.28 -0.16,-13.76 -0.96,-43.679999 -8,-92 -41.439998,-126.08 -27.680001,-28 -68.000002,-36.64 -105.760002,-40.64 -46.72,-4.96 -93.92,-7.19999 -140.96001,-6.72 -48.79999,0.80001 -104.32,0.48 -150.72,19.2 V 0 Z"
             style="fill:#e0c09f;fill-opacity:1;fill-rule:evenodd;stroke:none"
             id="path855" />
        </g>
      </g>
      <g
         id="g857"
         transform="translate(0,183.03999)">
        <path
           d="M 0,0 C 6.56,9.6 13.92,18.4 21.280001,26.719999 44,51.84 67.68,75.360001 91.040001,99.519997 113.28,122.72 135.36,146.88 158.72,167.84 c 21.12,19.04 44.16,35.68 68.64,42.72 24.31999,7.04001 47.99999,2.72 69.12001,-10.4 21.59998,-13.6 39.67999,-34.72 56.16,-56.64 33.12,-43.680004 65.59998,-91.52 83.84,-149.76 2.87998,-8.64 5.28,-17.6 7.35999,-26.719999 8,-21.120003 12.80001,-44.639999 14.55999,-68.960001 L 0,-101.92 Z"
           style="fill:#253746;fill-opacity:1;fill-rule:evenodd;stroke:none"
           id="path859" />
      </g>
      <g
         id="g861"
         transform="translate(1122.72,400.48001)">
        <g
           id="g863"
           clip-path="url(#clipPath867)">
          <path
             d="m 0,0 v -319.35999 h -326.88 c 5.27999,25.75998 22.23999,41.59998 51.04,52.96 37.28,14.72 81.92,41.11999 79.51999,81.75999 -1.75999,27.36 -25.11999,45.92 -37.28,69.76 C -258.07999,-67.040001 -202.24,-0.16 -153.92,25.120001 -105.6,50.400002 -46.240002,38.240002 -5.6,4.8 -3.68,3.2 -1.92,1.6 0,0 Z"
             style="fill:#ffb25b;fill-opacity:1;fill-rule:evenodd;stroke:none"
             id="path869" />
        </g>
      </g>
      <g
         id="g871"
         transform="translate(802.56,171.67999)">
        <path
           d="M 0,0 C -5.76,2.72 -11.04,6.88 -15.2,11.84 -35.040001,38.560001 -36,68.959999 -6.4,89.919998 -0.32,94.080002 5.28,97.279999 10.88,99.360001 25.120001,104.64 38.400002,102.56 51.84,89.440002 69.919998,72 79.199997,55.84 74.559998,37.599998 c 0,-0.639999 -0.32,-1.279998 -0.479996,-1.919998 0,-0.319999 -0.160004,-0.639999 -0.32,-0.959999 C 72.639999,30.719999 71.040001,27.52 68.639999,24.639999 64.480003,18.879999 59.200001,13.92 53.759998,9.92 39.040001,-0.96 15.52,-11.84 0,0 Z"
           style="fill:#ffb25b;fill-opacity:1;fill-rule:evenodd;stroke:none"
           id="path873" />
      </g>
      <g
         id="g875">
        <g
           id="g877"
           clip-path="url(#clipPath881)">
          <g
             id="g883"
             transform="translate(47.68,656.64001)" />
          <g
             id="g887" />
          <g
             id="g891"
             transform="translate(78.080002,671.03998)" />
          <g
             id="g895"
             transform="translate(80,671.67999)" />
          <g
             id="g899" />
          <g
             id="g903"
             transform="translate(83.040001,672.47998)" />
          <g
             id="g907"
             transform="translate(85.599998,671.67999)" />
          <g
             id="g911" />
          <g
             id="g915"
             transform="translate(88,676)" />
          <g
             id="g919"
             transform="translate(91.68,672.47998)" />
          <g
             id="g923"
             transform="translate(93.760002,672.47998)" />
          <g
             id="g927"
             transform="translate(97.279999,672.47998)" />
          <g
             id="g931"
             transform="translate(100.16,674.23999)" />
          <g
             id="g935"
             transform="translate(105.92,671.20001)" />
          <g
             id="g939"
             transform="translate(110.24,672.47998)" />
          <g
             id="g943"
             transform="translate(110.72,676)" />
          <g
             id="g947"
             transform="translate(117.92,674.88)" />
          <g
             id="g951"
             transform="translate(123.52,671.52002)" />
          <g
             id="g955"
             transform="translate(126.08,672.47998)" />
          <g
             id="g959"
             transform="translate(127.68,672.47998)" />
          <g
             id="g963"
             transform="translate(132,671.67999)" />
          <g
             id="g967" />
          <g
             id="g971"
             transform="translate(134.72,672.47998)" />
          <g
             id="g975"
             transform="translate(135.36,674.23999)" />
          <g
             id="g979"
             transform="translate(141.44,672.47998)" />
          <g
             id="g983"
             transform="translate(147.52,672.47998)" />
          <g
             id="g987"
             transform="translate(152.8,674.88)" />
          <g
             id="g991"
             transform="translate(155.2,672.47998)" />
          <g
             id="g995"
             transform="translate(158.88,672.47998)" />
          <g
             id="g999"
             transform="translate(78.080002,662.88)" />
          <g
             id="g1003"
             transform="translate(80,663.67999)" />
          <g
             id="g1007" />
          <g
             id="g1011" />
          <g
             id="g1015"
             transform="translate(83.199997,663.67999)" />
          <g
             id="g1019" />
          <g
             id="g1023"
             transform="translate(85.440002,664.15997)" />
          <g
             id="g1027"
             transform="translate(86.720001,664.15997)" />
          <g
             id="g1031"
             transform="translate(84.160004,666.23999)" />
          <g
             id="g1035"
             transform="translate(92.480003,664.47998)" />
          <g
             id="g1039"
             transform="translate(94.879997,663.67999)" />
          <g
             id="g1043" />
          <g
             id="g1047"
             transform="translate(97.919998,664.47998)" />
          <g
             id="g1051"
             transform="translate(100.32,663.67999)" />
          <g
             id="g1055" />
          <g
             id="g1059"
             transform="translate(102.88,668)" />
          <g
             id="g1063"
             transform="translate(106.56,664.47998)" />
          <g
             id="g1067"
             transform="translate(110.24,666.88)" />
          <g
             id="g1071"
             transform="translate(112.48,664.47998)" />
          <g
             id="g1075"
             transform="translate(113.6,663.67999)" />
          <g
             id="g1079" />
          <g
             id="g1083"
             transform="translate(118.08,666.88)" />
          <g
             id="g1087"
             transform="translate(120.32,664.47998)" />
          <g
             id="g1091"
             transform="translate(73.599998,654.88)" />
          <g
             id="g1095"
             transform="translate(81.599998,656.32001)" />
          <g
             id="g1099"
             transform="translate(85.599998,656.32001)" />
          <g
             id="g1103"
             transform="translate(88.800003,656)" />
          <g
             id="g1107"
             transform="translate(90.080002,656)" />
          <g
             id="g1111"
             transform="translate(90.720001,656.47998)" />
          <g
             id="g1115"
             transform="translate(93.760002,656.47998)" />
          <g
             id="g1119"
             transform="translate(94.879997,655.67999)" />
          <g
             id="g1123" />
          <g
             id="g1127"
             transform="translate(97.279999,660)" />
          <g
             id="g1131"
             transform="translate(101.12,656.47998)" />
          <g
             id="g1135"
             transform="translate(102.56,656)" />
          <g
             id="g1139"
             transform="translate(103.84,656)" />
          <g
             id="g1143"
             transform="translate(101.28,658.23999)" />
          <g
             id="g1147"
             transform="translate(109.6,656.32001)" />
          <g
             id="g1151"
             transform="translate(112,655.67999)" />
          <g
             id="g1155" />
          <g
             id="g1159"
             transform="translate(115.04,656.32001)" />
          <g
             id="g1163"
             transform="translate(117.44,655.67999)" />
          <g
             id="g1167" />
          <g
             id="g1171"
             transform="translate(120,660)" />
          <g
             id="g1175"
             transform="translate(123.68,656.47998)" />
          <g
             id="g1179"
             transform="translate(127.36,658.88)" />
          <g
             id="g1183"
             transform="translate(129.60001,656.47998)" />
          <g
             id="g1187"
             transform="translate(130.72,655.67999)" />
          <g
             id="g1191" />
          <g
             id="g1195"
             transform="translate(132.96001,656)" />
          <g
             id="g1199"
             transform="translate(134.24,656)" />
          <g
             id="g1203"
             transform="translate(131.67999,658.23999)" />
        </g>
      </g>
    </g>
  </g>
</svg>
