<?xml version="1.0" encoding="UTF-8" standalone="no"?>
<svg
   xmlns:dc="http://purl.org/dc/elements/1.1/"
   xmlns:cc="http://creativecommons.org/ns#"
   xmlns:rdf="http://www.w3.org/1999/02/22-rdf-syntax-ns#"
   xmlns:svg="http://www.w3.org/2000/svg"
   xmlns="http://www.w3.org/2000/svg"
   xmlns:xlink="http://www.w3.org/1999/xlink"
   xmlns:sodipodi="http://sodipodi.sourceforge.net/DTD/sodipodi-0.dtd"
   xmlns:inkscape="http://www.inkscape.org/namespaces/inkscape"
   version="1.1"
   id="Layer_1"
   x="0px"
   y="0px"
   viewBox="0 0 1850 3000"
   style="enable-background:new 0 0 1850 3000;"
   xml:space="preserve"
   sodipodi:docname="ym_background.svg"
   inkscape:version="1.0.2-2 (e86c870879, 2021-01-15)"><metadata
   id="metadata29"><rdf:RDF><cc:Work
       rdf:about=""><dc:format>image/svg+xml</dc:format><dc:type
         rdf:resource="http://purl.org/dc/dcmitype/StillImage" /><dc:title /></cc:Work></rdf:RDF></metadata><defs
   id="defs27"><clipPath
     clipPathUnits="userSpaceOnUse"
     id="clipPath853"><path
       d="M -439.04001,-187.67999 H 0.16 V -0.16 h -439.20001 z"
       clip-rule="evenodd"
       id="path851" /></clipPath><clipPath
     clipPathUnits="userSpaceOnUse"
     id="clipPath867"><path
       d="M -326.88,-319.35999 H -0.16 V 50.560001 h -326.72 z"
       clip-rule="evenodd"
       id="path865" /></clipPath><clipPath
     clipPathUnits="userSpaceOnUse"
     id="clipPath881"><path
       d="M 26.08,644.96002 V 686.88 H 160.8 v -41.91998 z"
       clip-rule="evenodd"
       id="path879" /></clipPath></defs><sodipodi:namedview
   pagecolor="#ffffff"
   bordercolor="#666666"
   borderopacity="1"
   objecttolerance="10"
   gridtolerance="10"
   guidetolerance="10"
   inkscape:pageopacity="0"
   inkscape:pageshadow="2"
   inkscape:window-width="2560"
   inkscape:window-height="1377"
   id="namedview25"
   showgrid="false"
   showguides="true"
   inkscape:guide-bbox="true"
   inkscape:zoom="0.18856181"
   inkscape:cx="1426.0385"
   inkscape:cy="1968.2851"
   inkscape:window-x="-8"
   inkscape:window-y="-8"
   inkscape:window-maximized="1"
   inkscape:current-layer="Layer_1"
   inkscape:document-rotation="0"><sodipodi:guide
     position="2079.5569,-1.6682901"
     orientation="0,-1"
     id="guide1340" /><sodipodi:guide
     position="1109.3842,-0.00055609643"
     orientation="0,-1"
     id="guide1342" /><sodipodi:guide
     position="0,1727.3437"
     orientation="1,0"
     id="guide1344" /></sodipodi:namedview>
<style
   type="text/css"
   id="style2">
	.st0{clip-path:url(#SVGID_2_);}
	.st1{fill:#2B5233;}
	.st2{fill:#E0BF9E;}
	.st3{fill:#C66E4E;}
	.st4{fill:#B9D3DC;}
</style>
<g
   id="g22"
   transform="scale(1,1.0000975)">
	<g
   id="g20">
		<defs
   id="defs5">
			<rect
   id="SVGID_1_"
   width="1850"
   height="3000"
   x="0"
   y="0" />
		</defs>
		<clipPath
   id="SVGID_2_">
			<use
   xlink:href="#SVGID_1_"
   style="overflow:visible"
   id="use7"
   x="0"
   y="0"
   width="100%"
   height="100%" />
		</clipPath>
		<g
   class="st0"
   clip-path="url(#SVGID_2_)"
   id="g18">
			
			<path
   class="st2"
   d="m -624.1,2019.7 c 50.7,69 108,82.6 188.3,58.2 80.3,-24.4 188.1,-39.5 237.2,30.5 33.1,47.2 18.8,108.3 29.9,163.3 22.4,110.4 201.5,147.5 313.9,125.9 112.4,-21.6 193.8,-119.2 216.9,-227 23.1,-107.8 -4.2,-223.2 -50.4,-327.7 -21,-47.3 -46.4,-95.7 -44.2,-145.9 3.3,-77.5 59.7,-141.9 51.4,-219.7 -6.3,-58.7 -45,-108.2 -102.1,-132.5 -98.3,-41.8 -219.2,-64.5 -322,-64.8 -80.1,-0.2 -230.1,10.1 -291.9,66.9 -68.2,62.7 -64.7,148.9 -73.8,229.4 -12.1,106.3 -47.8,150.9 -122.9,215.6 -56.9,48.9 -76.9,164.5 -30.3,227.8 m 164.4,178.1 c -5.9,12.3 -9.1,25.7 -9.4,39.3 2.3,70 40.5,121 116.5,116.6 15.2,-0.9 28.8,-3 40.6,-6.9 30.3,-9.8 49.3,-30.6 54.3,-69.6 6.6,-52.3 1.2,-91 -30.4,-115 -1.1,-0.9 -2.2,-1.6 -3.2,-2.4 -0.6,-0.5 -1.3,-1 -2,-1.4 -6.4,-4.6 -13.8,-7.9 -21.5,-9.6 -14.3,-4.1 -29.6,-5.4 -43.8,-4.9 -38.2,1.2 -91,14.3 -101.1,53.9"
   id="path12"
   style="fill:#ecb2c9;fill-opacity:1" />
			
			<path
   class="st4"
   d="m -362.2,28.3 c -15.3,7.8 -30.3,16.5 -44.8,25.8 -30,19.4 -58.2,41.4 -84.2,65.8 -14.9,13.9 -29.2,28.6 -42.8,43.9 -87.9,99.3 -142.7,223.2 -166.5,342.8 -24.7,124.3 -20.7,254.9 34.3,346.5 57.3,95.5 166.5,131.7 279.2,140.8 115.3,9.3 238,-3.6 360.5,-35.2 113.2,-29.4 254.5,-76 334.7,-195.2 37.9,-56.3 51.6,-119.4 57.9,-179.2 7.5,-70.7 10.8,-140.8 15.9,-210.9 4.9,-67.3 11.5,-135.5 11.4,-201.7 C 393.3,112.3 387.1,52.9 363.7,4.9 340.4,-42.9 300.6,-73.8 250.3,-88.2 199,-103 140.6,-101.4 83.2,-96.5 c -25.8,2.2 -51.5,4.8 -77.2,7.9 -26.4,3.2 -52.8,7.1 -78.9,12 -26.8,5 -53.4,10.9 -79.7,18.1 -26.3,7.2 -52.6,15.4 -77.9,25.6 -82.8,33.4 -116,53.2 -131.7,61.2"
   id="path16"
   style="fill:#e0c09f;fill-opacity:1" />
		</g>
	</g>
</g>
<path
   d="m 1874.6034,2950.8114 c 50.9399,-18.8085 96.9218,-55.7829 128.7978,-99.7437 40.7682,-56.2241 82.3107,-121.9502 82.3107,-191.3994 V 1652.6712 c -79.3571,16.2656 -128.1542,68.5133 -163.1502,157.2354 -45.347,114.846 -126.6757,252.3655 -251.8727,244.9719 -84.286,-5.4218 -141.4625,-77.3855 -214.9049,-114.8461 -147.3774,-75.4137 -346.118,82.5983 -423.9964,231.4544 -193.36741,518.5648 544.4718,874.687 842.8157,779.3246 z"
   style="fill:#ffb25b;fill-opacity:1;fill-rule:evenodd;stroke:none;stroke-width:3.08063"
   id="path869-1"
   sodipodi:nodetypes="csscccccc" /><path
   d="m 1749.3063,1732.3039 c -6.5813,-13.9368 -16.6467,-26.7122 -28.6479,-36.7777 -64.6513,-48.0045 -138.2066,-50.3273 -188.9211,21.2924 -10.0655,14.711 -17.8081,28.2607 -22.8409,41.8104 -12.7754,34.4549 -7.7426,66.5869 24.0023,99.1061 42.1975,43.7461 81.298,66.1999 125.4312,54.973 1.5486,0 3.0971,-0.7743 4.6456,-1.1614 0.7743,0 1.5486,-0.3871 2.3228,-0.7743 9.6784,-2.7099 17.421,-6.5812 24.3895,-12.3882 13.9368,-10.0655 25.9379,-22.8409 35.6162,-36.0035 26.3251,-35.6162 52.6502,-92.5249 24.0023,-130.0768 z"
   style="fill:#ffb25b;fill-opacity:1;fill-rule:evenodd;stroke:none;stroke-width:2.41958"
   id="path873-5" /><path
   d="m 1603.5218,0 c -23.227,15.871748 -44.5183,33.679079 -64.6484,51.48641 -60.7771,54.97045 -117.6832,112.2636 -176.1377,168.78252 -56.1317,53.8091 -114.5863,107.23109 -165.2985,163.75 -46.0668,51.09929 -86.3267,106.84398 -103.3598,166.07271 -17.0331,58.84158 -6.581,116.13473 25.1625,167.23407 32.9048,52.26059 84.0041,96.00471 137.039,135.87767 105.6826,80.13298 221.4302,158.71752 362.3404,202.84872 20.9042,6.9681 42.5828,12.7748 64.6484,17.8073 51.0992,19.3558 108.0052,30.9693 166.8469,35.2276 V 0 Z"
   style="fill:#2537c8;fill-opacity:1;fill-rule:evenodd;stroke:none;stroke-width:2.41947"
   id="path859-9" /></svg>
